<svg id="Capa_1" data-name="Capa 1" xmlns="http://www.w3.org/2000/svg" viewBox="0 0 500 500"><defs><style>.cls-1{fill:#4d3c34;}.cls-1,.cls-2,.cls-3,.cls-5{fill-rule:evenodd;}.cls-2{fill:#576340;}.cls-3{fill:#7b9447;}.cls-4,.cls-5{fill:#a6b496;}</style></defs><path class="cls-1" d="M95.14,413.11c.38-1.09-.44-6.77-.52-8.81-.13-2.91,0-6.09-.31-9a30.3,30.3,0,0,0-2-8.31c-.8-1.75-3.82-6.92-8-6s-2.64,15.42-2.47,17.8c.33,4.95,0,3.95,4.33,7.64a74.07,74.07,0,0,0,9,6.66M80,400.62c.35-1.26-1.09-7.63-1.29-9.28-.38-3.28-.36-6.56-.67-9.67a29.06,29.06,0,0,0-2.21-9c-.73-1.58-3.87-7.52-8.28-6.52-3.84.87-2.71,11-2.4,14.1C65.52,384.32,77.3,398.61,80,400.62Zm28.69,20.81c.71-2.95-.18-16.36-2.53-21.14-1.75-3.55-11.06-12.64-9.29,9.71.08,1.06,0,2.42.16,3.5C97.33,415.68,106.36,420.34,108.66,421.43ZM121.9,430c-27.06-9.45-42.08-22.53-57.2-43.47-4-5.5-7.77-13.41-14.23-14.38-10.68-1.6-4.23,12-2.67,16,30.41,62.43,97.17,90,156.38,79C259,456.84,303.29,413.28,297.67,351c-.93,15.11-5,30.37-12.07,42.61-15.48,29.2-60.39,60.92-96.08,48.55-7.57-29.48-42.88-39.26-39.22-59.78-2.48-8.18-12.83-2.17-15.8,4.36-8,17.63,14.79,30.76,11.72,40.21a7.19,7.19,0,0,1-3.33,4.13c-3.5,1.8-8.72,1.44-12.3.92A51.93,51.93,0,0,1,121.9,430Z"/><path class="cls-2" d="M187.34,93.09l-21.48,50.19c36.69-10,73.64,4.93,95.26,31.45,19.69,24.16,17.3,44.42,20.64,75.05,1.47,13.53,4.74,23.8,17.88,52.4l39,86.28c39,75.63,87,88.79,148.35,84.39L317.84,82.07C292.37,23.25,206.28,7,170.36,54.55c20.4,1.92,24,22.25,17,38.54"/><path class="cls-3" d="M160,153.79c9.72,3,79.49,33.82,85.7,94C233.59,195.17,159.13,146.61,111,156c18.11,1.63,29.52,8.48,38.19,18.25,27.56,31,29.11,92.23,128.47,109.25-11.84-30.57-6.11-55.84-15-81.88-12.62-37-62.93-60.89-102.69-47.8"/><path class="cls-4" d="M247.37,423.4C213,350.12,39,278,96.44,170.62,72.56,270,223.88,331.75,258.22,414.69a69.74,69.74,0,0,1-10.85,8.71"/><path class="cls-5" d="M44.07,184.59c-30.33,64.7-16.18,126.75,7.12,181.26-13.39-.16-12.35,9.93-11.64,15.09C17,333.72-1.9,239.5,44.07,184.59"/></svg>